<?xml version="1.0" encoding="UTF-8"?>
<svg id="Camada_1" xmlns="http://www.w3.org/2000/svg" version="1.1" viewBox="0 0 321.59 321.35">
  <!-- Generator: Adobe Illustrator 29.4.0, SVG Export Plug-In . SVG Version: 2.1.0 Build 152)  -->
  <defs>
    <style>
      .st0 {
        fill: #fff;
      }
    </style>
  </defs>
  <path class="st0" d="M308.19.3c1.39.12,4.82.67,6.17,1.05,2.41.67,5.72,3.86,6.25,6.29.36,1.65.64,6.05.75,8.03.88,15.18-.98,33.1-4.07,47.97-.35,1.68-3.08,14.36-3.82,14.46-34.95-4.19-65.98-34.55-69.93-69.64,10.94-2.59,21.82-5.45,33.03-6.83,3.89-.48,8.43-1.12,12.16-1.33,5.62-.32,13.93-.46,19.46,0Z"/>
  <path class="st0" d="M0,157.07c.84-1.98,1.47-3.3,2.82-5.02,6.14-7.88,21.66-22.57,29.49-29.49,11.92-10.54,31.27-21.15,47.64-19.35,1.25.14,5.76.91,6.03,2.16-13.72,19.09-27.12,38.46-38.38,59.14-5.22-.6-11.25-.94-16.52-.54-6.52.5-16.92,4.55-22.45,4.22-4.34-.26-7.03-3.76-8.63-7.37v-3.76Z"/>
  <path class="st0" d="M307.56,96.25c-8.63,21.94-20.97,42.27-35.53,60.76-29.64,37.63-68.56,67.93-109.3,92.8l-1.76-.51-20.69-20.72c14.88-37.23-10.12-62.36-47.42-47.37l-20.61-20.82c-.33-1.26,6.19-11.09,7.44-13.05C114.63,92.18,164.26,41.29,225.03,15.35c7.86,40.22,41.76,74.46,82.53,80.89ZM205.13,67.58c-38.8,1.29-59.18,47.45-34.38,77.25,20.94,25.16,61.56,21.27,77.29-7.4,17.61-32.08-6.34-71.07-42.91-69.85Z"/>
  <path class="st0" d="M113.51,195.48c21.92-.82,9.93,27.94,1.68,37.48-11.49,13.3-34.47,32.04-49.33,41.64-6.31,4.07-18.88,13.49-25.62,6.89-6.6-6.46.94-16.65,4.7-22.77,6.49-10.58,15.06-21.37,23.16-30.79,11.5-13.37,26.34-31.73,45.41-32.44Z"/>
  <path class="st0" d="M215.64,236.73c1.89-.45,2.8,7.16,2.82,8.48.52,31.91-29.92,53.92-49.64,74.56-6.52,3.93-13.94.15-14.43-7.47s2.75-17.88,3.16-25.74c.21-3.94-.42-7.72-.33-11.6,20.11-11.72,39.99-23.99,58.42-38.23Z"/>
  <path class="st0" d="M144.99,260.54l-31.22,15.54c-5.44.87-8.1-2.21-11.45-5.81l27.29-25.39,15.38,15.66Z"/>
  <path class="st0" d="M61.52,177.14l15.05,14.74-25.41,27.27c-8.64-6.46-4.57-12.48-.85-20.28,3.48-7.31,8.29-14.12,11.22-21.72Z"/>
  <path class="st0" d="M206.4,86.36c39.38-.79,37.1,62-4.32,56.01-32.5-4.7-30.14-55.32,4.32-56.01Z"/>
</svg>