<?xml version="1.0" encoding="UTF-8"?>
<svg id="Camada_1" xmlns="http://www.w3.org/2000/svg" version="1.1" viewBox="0 0 329 367.96">
  <!-- Generator: Adobe Illustrator 29.4.0, SVG Export Plug-In . SVG Version: 2.1.0 Build 152)  -->
  <defs>
    <style>
      .st0 {
        fill: #fff;
      }
    </style>
  </defs>
  <path class="st0" d="M173.12,367.96h-17.96c-58.69-3.07-113.68-33.42-147.18-81.69-3.45-4.97-9.32-12.02-7.7-18.21,2.23-8.51,15.36-26.29,21.57-33.04,15.67-17.04,50.22-37.86,73.91-37.09,6.52.21,16.5,8.86,22.98,12.08,28.45,14.1,62.52,14.3,91.05.25,10.09-4.97,15.59-12.66,27.64-11.86,23.45,1.56,52.74,18.73,68.66,35.54,6.45,6.82,21.05,25.87,22.83,34.68.86,4.26-4.2,10.98-6.59,14.66-32.24,49.76-90.27,81.7-149.2,84.7Z"/>
  <path class="st0" d="M157.88.25c74.29-5.32,126.34,74.44,90.81,140.4-32.55,60.43-116.63,68.06-159.22,13.82C42.14,94.18,82.03,5.69,157.88.25Z"/>
</svg>